# xmcd
#
# Track frame offsets:
#  150
#  14863
#  28487
#  43249
#  59110
#  75379
#  91587
#  109662
#  124706
#  138238
#  156166
#  172262
#
# Disc length: 2537 seconds
#
# Revision: 0
# Processed by: cddbd v1.5.2PL0 Copyright (c) Steve Scherf et al.
# Submitted via: Collectorz.com_Music_Collector 6.9
#
DISCID=a709e70c
DTITLE=Andrea Berg - Zwischen Himmel und Erde
DYEAR=2009
DGENRE=
TTITLE0=Verdammt, ich lieb dich noch
TTITLE1=Wenn du jetzt gehst, nimm auch deine Liebe mit
TTITLE2=Ich hab dich geliebt
TTITLE3=Wonach du dich auch sehnst
TTITLE4=Dich soll der Teufel hol'n
TTITLE5=Tief im Sturm
TTITLE6=Da wo ein Engel die Erde berührt
TTITLE7=Nie mehr du und ich
TTITLE8=Ohne dich hab' ich schon oft die Nacht verflucht
TTITLE9=Flieg hinauf in die Nacht
TTITLE10=Das Paradies war viel zu weit
TTITLE11=Mach diese Nacht unendlich
EXTD=
EXTT0=
EXTT1=
EXTT2=
EXTT3=
EXTT4=
EXTT5=
EXTT6=
EXTT7=
EXTT8=
EXTT9=
EXTT10=
EXTT11=
PLAYORDER=
